<svg width="500px" height="500px" xmlns="http://www.w3.org/2000/svg" xmlns:xlink="http://www.w3.org/1999/xlink">
<g style="">  <path d="M330.143512,422.822113 C384.595653,369.799803,422.001081,326.067677,451.331657,280.709292 C413.549785,267.217698,386.543260,230.801278,386.543260,188.012451 C386.543260,133.612403,430.195497,89.512451,484.043260,89.512451 C486.247334,89.512451,488.434327,89.586336,490.571888,89.845500 C481.667479,61.285917,464.964452,38.777367,440.981471,23.478645 C419.429645,9.786869,393.567455,1.800000,367.705265,1.800000 C345.537673,1.800000,319.675482,7.504907,304.897088,14.921285 C282.113730,26.901589,264.256503,52.573669,258.714605,80.527712 C255.635773,97.642432,251.400892,101.065376,250.093875,101.065376 C248.786857,101.065376,245.783510,99.353904,241.473145,80.527712 C236.547013,54.855632,220.537086,30.895024,199.601027,17.203248 C183.591099,6.934416,163.886573,1.800000,137.408616,1.800000 C91.226134,1.800000,57.358979,17.203248,32.728322,49.150725 C13.639562,74.252315,1.940000,109.622736,1.940000,142.711195 C1.940000,198.619281,32.112555,264.796198,92.457666,338.389494 C133.098251,388.592673,144.182047,400.002487,250.093875,500.979335 C264.872269,486.717068,264.872269,486.717068,330.143512,422.822113 Z " style="fill: rgba(255, 255, 255, 1.000000); " fill="#ffffff" stroke="none" />
</g></svg>