<?xml version="1.0" encoding="UTF-8"?>
<svg width="156px" height="141px" viewBox="0 0 156 141" version="1.1" xmlns="http://www.w3.org/2000/svg" xmlns:xlink="http://www.w3.org/1999/xlink">
    <title>Combined Shape Copy</title>
    <g id="Page-1" stroke="none" stroke-width="1" fill="none" fill-rule="evenodd">
        <g id="Extra-Large" transform="translate(-652, -540)" fill="#FFFFFF">
            <path d="M799.397927,554.891536 C799.439121,554.93554 799.48023,554.979624 799.521254,555.023787 C800.587173,556.171265 801.601235,557.349288 802.563443,558.554882 C790.537437,565.202091 782.489276,578.146237 782.746554,592.885689 C783.028817,609.056546 793.22649,622.718895 807.418855,628.132198 C805.206235,631.872701 802.562118,635.431269 799.487495,638.735798 C796.829446,641.592607 794.070086,644.360009 791.209412,647.038003 C777.822406,659.569678 762.216804,670.143457 744.392609,678.759339 C741.065619,680.367247 737.488651,681.081572 733.967771,680.9599 C730.451989,681.079234 726.880935,680.364699 723.559086,678.759378 C705.73478,670.14344 690.129139,659.569535 676.742164,647.037662 C673.881564,644.359785 671.12227,641.592503 668.464284,638.735818 C646.520117,615.151248 646.505215,578.626169 668.430106,555.023678 C668.47113,554.979516 668.512239,554.935432 668.553432,554.891427 C685.984238,536.271245 715.017527,535.019925 733.976721,551.852611 C752.934473,535.020061 781.967314,536.271559 799.397927,554.891536 Z" id="Combined-Shape-Copy"></path>
        </g>
    </g>
</svg>